<?xml version="1.0" encoding="UTF-8"?>
<svg id="Livello_1" data-name="Livello 1" xmlns="http://www.w3.org/2000/svg" viewBox="0 0 469.21 381.8">
  <defs>
    <style>
      .cls-1 {
        fill: none;
      }

      .cls-2 {
        fill: #c09b46;
      }

      .cls-3 {
        fill: #c09b46;
      }
    </style>
  </defs>
  <g>
    <g>
      <path class="cls-1" d="M247.05,8.65l-1.2,7.7c15.12,2.9,29.48,8.1,42.69,15.23l3.84-6.65c-14-7.66-29.26-13.22-45.33-16.29Z"/>
      <path class="cls-1" d="M220.02,5.93c-9.37-.11-18.58,.63-27.56,2.15l1.19,7.63c8.5-1.42,17.22-2.11,26.09-2,6.51,.08,12.93,.59,19.24,1.49l1.2-7.7c-6.61-.95-13.34-1.49-20.17-1.57Z"/>
      <path class="cls-1" d="M141.12,26.56l3.73,6.45c12.98-7.33,27.09-12.79,41.97-15.99l-1.19-7.62c-15.8,3.42-30.78,9.28-44.51,17.16Z"/>
      <path class="cls-1" d="M298.41,28.41l-3.82,6.62c12.89,7.74,24.57,17.37,34.64,28.5l5.22-5.22c-10.46-11.66-22.61-21.76-36.04-29.9Z"/>
      <path class="cls-1" d="M333.79,68.8c9.45,11.45,17.27,24.3,23.07,38.2l6.34-2.81c-6.03-14.77-14.24-28.44-24.21-40.59l-5.2,5.2Z"/>
      <path class="cls-1" d="M100.12,60.31l5,5c9.79-11.15,21.16-20.85,33.74-28.74l-3.7-6.42c-13.08,8.29-24.9,18.47-35.04,30.15Z"/>
      <path class="cls-1" d="M72.54,105.6l6,2.66c5.55-13.63,13.03-26.27,22.09-37.59l-4.98-4.98c-9.53,12.01-17.37,25.43-23.12,39.91Z"/>
      <path class="cls-2" d="M105.12,65.31l20.84,20.84c8.06-9.16,17.5-17.1,27.96-23.5l-15.06-26.08c-12.58,7.89-23.96,17.59-33.74,28.74Z"/>
      <path class="cls-2" d="M67.57,158.35l28.89,.06c.39-11.26,2.51-22.11,6.09-32.32l-26.48-11.35c-5.02,13.72-7.99,28.37-8.5,43.62Z"/>
      <path class="cls-2" d="M337.3,158.87l31.05,.06c-.46-15.9-3.6-31.18-8.96-45.44l-28.34,12.15c3.73,10.49,5.9,21.65,6.25,33.23Z"/>
      <path class="cls-2" d="M144.84,33.02l15.12,26.18c9.83-5.27,20.46-9.23,31.62-11.64l-4.77-30.54c-14.88,3.21-29,8.67-41.97,15.99Z"/>
      <path class="cls-2" d="M333.79,68.8l-22.05,22.05c6.89,8.68,12.59,18.32,16.85,28.68l28.28-12.54c-5.8-13.9-13.62-26.75-23.07-38.2Z"/>
      <path class="cls-2" d="M245.85,16.35l-4.83,30.97c11.25,2.3,21.96,6.17,31.88,11.38l15.65-27.11c-13.22-7.13-27.58-12.34-42.69-15.23Z"/>
      <path class="cls-2" d="M294.59,35.03l-15.63,27.07c10.58,6.35,20.12,14.27,28.28,23.42l21.99-21.99c-10.07-11.13-21.74-20.75-34.64-28.5Z"/>
      <path class="cls-2" d="M55.32,158.09h6.3c.52-16.04,3.47-31.47,8.49-45.96l-5.71-2.53c-5.36,15.26-8.53,31.54-9.08,48.49Z"/>
      <path class="cls-2" d="M363.2,104.19l5.28-2.34c-6.32-15.43-14.93-29.68-25.4-42.34l-4.1,4.1c9.97,12.15,18.18,25.81,24.21,40.59Z"/>
      <path class="cls-2" d="M334.45,58.31l4.09-4.09c-10.82-12.02-23.36-22.44-37.22-30.84l-2.9,5.03c13.43,8.13,25.58,18.23,36.04,29.9Z"/>
      <path class="cls-2" d="M220.02,5.93c6.83,.08,13.56,.62,20.17,1.57l.91-5.81C234.14,.67,227.05,.1,219.85,.01c-9.63-.11-19.09,.64-28.31,2.18l.92,5.89c8.97-1.52,18.18-2.27,27.56-2.15Z"/>
      <path class="cls-2" d="M185.62,9.4l-.92-5.9c-16.55,3.52-32.24,9.61-46.61,17.83l3.02,5.23c13.73-7.88,28.71-13.74,44.51-17.16Z"/>
      <path class="cls-2" d="M292.38,24.93l2.9-5.03c-14.61-8.02-30.54-13.86-47.33-17.06l-.91,5.81c16.07,3.07,31.33,8.63,45.33,16.29Z"/>
      <path class="cls-2" d="M135.16,30.16l-3.03-5.25c-13.55,8.54-25.81,19.02-36.35,31.06l4.34,4.34c10.14-11.69,21.96-21.86,35.04-30.15Z"/>
      <path class="cls-2" d="M95.66,65.69l-4.37-4.37c-10.07,12.54-18.37,26.58-24.45,41.75l5.7,2.53c5.75-14.48,13.59-27.9,23.12-39.91Z"/>
      <path class="cls-2" d="M374.7,158.72h5.82c-.5-17.62-3.83-34.56-9.53-50.38l-5.3,2.35c5.39,15.09,8.53,31.23,9.01,48.03Z"/>
      <path class="cls-2" d="M202.54,45.48c3.77-4.94,15.29-13.07,21.48-15.32,.29,3.61,.48,11.1-.18,14.72,4.38,.16,6.06,.53,10.32,1.15l4.83-30.92c-6.31-.9-12.73-1.41-19.24-1.49-8.87-.11-17.59,.58-26.09,2l4.78,30.59c2.95-.37,1.19-.23,4.11-.73Z"/>
      <path class="cls-2" d="M113.08,104.41c3-5.35,4.75-7.63,8.51-12.44l-20.87-20.87c-9.06,11.32-16.54,23.96-22.09,37.59l21.99,9.75c.3-6.66,2.81-17.54,4.85-23.67,1.8,2.21,6.11,7.17,7.6,9.63Z"/>
    </g>
    <g>
      <path class="cls-3" d="M203.22,239.95c2.26-.13,3.72-.48,4.39-1.05,.67-.57,1-1.91,1-4v-25.04c0-2.07-.33-3.4-1-4-.67-.6-2.13-.95-4.39-1.06v-1.04h15.76c4.5,0,8.08,.73,10.72,2.17,2.65,1.45,3.97,3.94,3.97,7.48,0,2.66-.93,4.68-2.78,6.05-1.04,.79-2.61,1.44-4.7,1.95,2.58,.62,4.79,1.66,6.62,3.12,1.83,1.46,2.75,3.49,2.75,6.11,0,4.4-2.03,7.42-6.1,9.06-2.14,.86-4.78,1.29-7.91,1.29h-18.34v-1.04Zm21.16-20.42c2.38-1.1,3.57-3.07,3.57-5.92,0-3.36-1.37-5.63-4.12-6.8-1.52-.64-3.83-.96-6.93-.96-1.17,0-1.9,.1-2.17,.3s-.41,.75-.41,1.65v12.72l5.36-.08c1.89-.04,3.45-.34,4.7-.91Zm1.81,17.76c1.94-1.12,2.91-3.26,2.91-6.43s-1.14-5.3-3.41-6.46c-2.27-1.15-5.17-1.73-8.69-1.73h-1.64c-.23,0-.58,0-1.06-.03v14.02c0,.97,.27,1.6,.82,1.88s1.82,.43,3.82,.43c2.88,0,5.29-.56,7.23-1.68Z"/>
      <path class="cls-3" d="M251.87,240.99v-1.04c1.45-.16,2.53-.71,3.26-1.63s1.96-3.46,3.72-7.6l11.73-27.62h1.12l14.03,31.91c.93,2.11,1.68,3.42,2.24,3.92s1.5,.84,2.82,1.02v1.04h-14.32v-1.04c1.65-.15,2.71-.32,3.18-.53,.48-.21,.71-.73,.71-1.55,0-.27-.09-.76-.27-1.45s-.44-1.42-.77-2.19l-2.25-5.41h-14.83c-1.46,3.68-2.34,5.93-2.62,6.74s-.43,1.45-.43,1.93c0,.95,.38,1.6,1.15,1.97,.48,.22,1.37,.38,2.69,.49v1.04h-11.15Zm24.24-14.46l-6.45-15.5-6.48,15.5h12.93Z"/>
      <path class="cls-3" d="M330.21,203.99c2.11,.6,3.32,.91,3.63,.91,.81,0,1.38-.16,1.72-.47,.34-.31,.63-.76,.87-1.35h1.24l.44,11.85h-1.29c-1.15-2.73-2.35-4.76-3.57-6.1-2.22-2.34-5.1-3.52-8.66-3.52s-6.79,1.37-9.52,4.11-4.11,7.25-4.11,13.54c0,5.19,1.36,9.24,4.1,12.15,2.73,2.91,6.1,4.37,10.11,4.37,.68,0,1.47-.06,2.39-.19,.92-.13,1.79-.33,2.61-.6,1.34-.44,2.17-.82,2.5-1.14,.33-.32,.49-.79,.49-1.41v-8.97c0-2.17-.31-3.53-.92-4.06s-1.96-.87-4.03-1v-1.04h14.35v1.04c-1.39,.09-2.32,.32-2.78,.69-.77,.59-1.15,1.8-1.15,3.63v11.08c0,.66-1.62,1.54-4.85,2.64s-6.34,1.65-9.33,1.65c-5.5,0-10.13-1.6-13.91-4.81-4.16-3.54-6.24-8.28-6.24-14.24,0-5.24,1.66-9.73,4.97-13.47,3.65-4.12,8.48-6.18,14.51-6.18,2.18,0,4.32,.3,6.43,.91Z"/>
      <path class="cls-3" d="M355.49,239.95c2.07-.22,3.41-.59,4.03-1.11s.92-1.84,.92-3.95v-25.04c0-2-.3-3.3-.91-3.92s-1.95-.99-4.04-1.14v-1.04h15.89v1.04c-2.07,.11-3.46,.45-4.16,1.02-.71,.57-1.06,1.79-1.06,3.66v27.05c0,.62,.11,1.11,.32,1.47,.21,.36,.67,.58,1.39,.67,.42,.05,.87,.09,1.33,.11,.47,.02,1.34,.03,2.63,.03,5.01,0,8.39-.41,10.15-1.24s3.47-2.93,5.12-6.32h1.43l-2.75,9.76h-30.29v-1.04Z"/>
      <path class="cls-3" d="M401.4,239.95c2.29-.16,3.78-.51,4.45-1.03,.68-.52,1.02-1.86,1.02-4.03v-25.04c0-2.07-.34-3.4-1.02-4s-2.16-.95-4.45-1.06v-1.04h16.66v1.04c-2.29,.11-3.78,.46-4.45,1.06s-1.02,1.93-1.02,4v25.04c0,2.17,.34,3.51,1.02,4.03,.68,.52,2.16,.86,4.45,1.03v1.04h-16.66v-1.04Z"/>
      <path class="cls-3" d="M436,207.92c3.46-3.32,7.72-4.97,12.78-4.97s9.35,1.67,12.81,5c3.76,3.61,5.63,8.42,5.63,14.43s-1.94,10.96-5.83,14.57c-3.48,3.23-7.69,4.84-12.62,4.84-5.28,0-9.66-1.79-13.14-5.36-3.54-3.65-5.3-8.33-5.3-14.05,0-6.01,1.89-10.83,5.66-14.46Zm4.21,27.58c2.33,2.83,5.19,4.25,8.59,4.25s6.16-1.38,8.52-4.14,3.54-7.17,3.54-13.23-1.19-10.57-3.58-13.3c-2.38-2.73-5.21-4.1-8.47-4.1s-6.23,1.42-8.57,4.25c-2.34,2.83-3.51,7.21-3.51,13.15s1.17,10.29,3.49,13.12Z"/>
      <path class="cls-3" d="M199.39,308.54v-1.04c1.45-.16,2.53-.71,3.26-1.63,.72-.93,1.96-3.46,3.72-7.6l11.73-27.62h1.12l14.03,31.91c.93,2.11,1.68,3.42,2.24,3.92s1.5,.84,2.82,1.02v1.04h-14.32v-1.04c1.64-.15,2.7-.32,3.18-.53s.71-.73,.71-1.55c0-.27-.09-.76-.27-1.45-.18-.69-.44-1.42-.77-2.19l-2.25-5.41h-14.83c-1.46,3.68-2.34,5.93-2.62,6.74-.28,.81-.43,1.45-.43,1.93,0,.95,.38,1.6,1.15,1.97,.48,.22,1.37,.38,2.69,.49v1.04h-11.15Zm24.24-14.46l-6.45-15.5-6.48,15.5h12.93Z"/>
      <path class="cls-3" d="M250.33,307.49c2.26-.13,3.72-.48,4.39-1.05,.66-.57,1-1.91,1-4v-25.04c0-2.07-.33-3.4-1-4-.67-.6-2.13-.95-4.39-1.06v-1.04h15.76c4.5,0,8.08,.73,10.72,2.17,2.65,1.45,3.97,3.94,3.97,7.48,0,2.66-.93,4.68-2.78,6.05-1.04,.79-2.61,1.44-4.7,1.95,2.58,.62,4.79,1.66,6.62,3.12,1.83,1.46,2.75,3.49,2.75,6.11,0,4.4-2.03,7.42-6.1,9.06-2.14,.86-4.78,1.29-7.91,1.29h-18.34v-1.04Zm21.16-20.42c2.38-1.1,3.57-3.07,3.57-5.92,0-3.36-1.37-5.63-4.12-6.8-1.52-.64-3.83-.96-6.93-.96-1.17,0-1.9,.1-2.17,.3s-.41,.75-.41,1.65v12.72l5.36-.08c1.89-.04,3.45-.34,4.7-.91Zm1.81,17.76c1.94-1.12,2.91-3.26,2.91-6.43s-1.14-5.3-3.41-6.46c-2.27-1.15-5.17-1.73-8.69-1.73h-1.64c-.23,0-.58,0-1.06-.03v14.02c0,.97,.27,1.6,.82,1.88s1.82,.43,3.82,.43c2.88,0,5.29-.56,7.23-1.68Z"/>
      <path class="cls-3" d="M298.01,307.49c2.26-.13,3.72-.48,4.39-1.05,.66-.57,1-1.91,1-4v-25.04c0-2.07-.33-3.4-1-4-.67-.6-2.13-.95-4.39-1.06v-1.04h15.76c4.5,0,8.08,.73,10.72,2.17,2.65,1.45,3.97,3.94,3.97,7.48,0,2.66-.93,4.68-2.78,6.05-1.04,.79-2.61,1.44-4.7,1.95,2.58,.62,4.79,1.66,6.62,3.12,1.83,1.46,2.75,3.49,2.75,6.11,0,4.4-2.03,7.42-6.1,9.06-2.14,.86-4.78,1.29-7.91,1.29h-18.34v-1.04Zm21.16-20.42c2.38-1.1,3.57-3.07,3.57-5.92,0-3.36-1.37-5.63-4.12-6.8-1.52-.64-3.83-.96-6.93-.96-1.17,0-1.9,.1-2.17,.3s-.41,.75-.41,1.65v12.72l5.36-.08c1.89-.04,3.45-.34,4.7-.91Zm1.81,17.76c1.94-1.12,2.91-3.26,2.91-6.43s-1.14-5.3-3.41-6.46c-2.27-1.15-5.17-1.73-8.69-1.73h-1.64c-.23,0-.58,0-1.06-.03v14.02c0,.97,.27,1.6,.82,1.88s1.82,.43,3.82,.43c2.88,0,5.29-.56,7.23-1.68Z"/>
      <path class="cls-3" d="M345.52,308.54v-1.04c1.45-.16,2.53-.71,3.26-1.63s1.96-3.46,3.72-7.6l11.73-27.62h1.12l14.03,31.91c.93,2.11,1.68,3.42,2.24,3.92s1.5,.84,2.82,1.02v1.04h-14.32v-1.04c1.65-.15,2.71-.32,3.18-.53,.48-.21,.71-.73,.71-1.55,0-.27-.09-.76-.27-1.45s-.44-1.42-.77-2.19l-2.25-5.41h-14.83c-1.46,3.68-2.34,5.93-2.62,6.74s-.43,1.45-.43,1.93c0,.95,.38,1.6,1.15,1.97,.48,.22,1.37,.38,2.69,.49v1.04h-11.15Zm24.24-14.46l-6.45-15.5-6.48,15.5h12.93Z"/>
      <path class="cls-3" d="M392.18,271.3h31.83l.3,9.56h-1.35c-.66-3-1.5-4.96-2.51-5.87-1.02-.91-3.16-1.36-6.42-1.36h-3.13v28.8c0,2.17,.34,3.51,1.02,4.03,.68,.52,2.16,.86,4.45,1.03v1.04h-16.41v-1.04c2.38-.18,3.87-.57,4.45-1.18s.88-2.12,.88-4.54v-28.15h-3.16c-3.12,0-5.24,.45-6.36,1.35-1.13,.9-1.98,2.86-2.54,5.88h-1.37l.33-9.56Z"/>
      <path class="cls-3" d="M436.23,307.49c2.07-.22,3.41-.59,4.03-1.11,.61-.52,.92-1.84,.92-3.95v-25.04c0-2-.3-3.3-.91-3.92s-1.95-.99-4.04-1.14v-1.04h29.9l.19,8.05h-1.43c-.48-2.48-1.19-4.08-2.14-4.81-.95-.73-3.08-1.09-6.38-1.09h-7.66c-.83,0-1.34,.13-1.53,.4-.19,.27-.29,.76-.29,1.5v12.56h8.69c2.4,0,3.93-.35,4.59-1.07s1.19-2.15,1.59-4.32h1.32v13h-1.32c-.42-2.18-.96-3.62-1.62-4.33s-2.18-1.06-4.56-1.06h-8.69v13.94c0,1.12,.35,1.78,1.06,1.98,.71,.2,2.82,.3,6.34,.3,3.82,0,6.63-.42,8.45-1.25,1.82-.83,3.45-2.85,4.9-6.06h1.57l-2.56,9.51h-30.43v-1.04Z"/>
    </g>
    <path class="cls-3" d="M254.63,96.41c-8.34-5.62-18.05-8.38-27.72-8.7h0s-.05,0-.05,0c-.48-.02-.96-.02-1.45-.02l-9.07-.14,11.65-7.31c7.48,1.99,15.21,3.58,22.7,3.43,9.82-.2,22.33-3.34,30.08-9.25-8.48-7.14-19.89-10.18-30.67-9.14-10.78,1.05-17.56,6.93-25.69,13.97-3.23,1.86-6.58,3.94-9.93,6.12h0s0,0,0,0c-1.07,.7-2.14,1.41-3.21,2.12l-3.6,2.43c-9.83,6.73-18.88,13.6-23.79,17.41-1.28,.27-2.56,.59-3.85,.99,4.26-11.59,7.85-16.71,8.48-17.16,16.92-12.03,34.84-35.81,33.06-58.04-25.02,13.45-38.83,47.69-45.79,76.76-12.01,5.1-24.41,16.45-35.65,37.84,.66-5.1,1.43-7.67,1.68-8.04,10.58-15.51,19.09-42.95,12.25-64.75-16.71,18.62-19.17,49.98-17.63,80.3-3.92,8.46-7.67,18.26-11.18,29.57,1.3-32.52-2.16-64.57-18.8-85.02-8.76,26.41,.3,60.23,12.2,79.55,.42,.67,1.94,7.08,2.34,20.45-.14,.55-.29,1.09-.43,1.65-2.46,9.59-5.09,18.68-7.84,27.34l-3.34-13.86-2.29-7.64c-6.89-24.6-28.86-35.2-50.73-37.38,.02,.04,.04,.08,.05,.12-.11-.01-.22-.03-.33-.04,8.42,21.69,34.82,32.17,50.07,48.26,0,0,2.79,11.39,4.29,17.53-5.39,16.06-11.22,30.48-17.29,43.39l-.54-17.16-.05-8.79c.34-28.17-18.65-45.76-40.03-54.34,0,.05,.01,.09,.02,.14-.11-.05-.21-.09-.32-.14,2.05,25.5,25.21,41.19,35.8,62.7,0,0,1.72,15.58,2.54,22.96-5.91,12.01-12.01,22.66-18.14,32.08,.46-27.8-4.49-55.84-26.02-72.68-8.38,21.13,3.76,47.52,18.27,62.38,.51,.52,2.6,5.56,3.81,16.18-10.37,15.03-20.69,26.63-30.1,35.4,8.62-21.5,11.51-44.15-3.98-62.1-13.72,13.42-10.05,36.91-.32,51.93,.36,.57,.98,5.58-1.45,15.28-15.4,13.04-27.62,18.22-32.33,18.69-2.56,.74,13.6-.83,35.48-15.3,11-2.52,16.72-2.11,17.4-1.78,18.71,9.17,47.47,12.32,64.57-2.6-21.26-14.21-46.91-11.49-71.28-3.45,8.85-7.12,18.24-16.34,27.45-28.23,0,0,24.09-11.15,26.11-11.89,0,0,0,0,0,0,2.53-.87,4.96-1.95,7.16-3.08,14.08-7.25,26.1-19.37,32.49-34.53-11.7,1.25-23.31,4.51-33.17,11.02-7.94,5.24-14.69,12.71-18.66,21.66h0s0,0,0,0c-.19,.42-.36,.85-.53,1.28-.49,.35-4.78,4.99-6.45,4.83l6.54-9.04c6.13-10.16,12.01-21.72,17.4-34.91,3.31-4.24,5.3-6.02,5.71-6.16,17.33-6.01,39.65-25.39,46.29-52.45-16.65,2.61-31.15,17-43.72,35.81,1.91-5.97,3.73-12.2,5.43-18.72,3.63-13.91,7.31-26.34,11.02-37.45,2.76-2.89,4.49-4.16,4.88-4.28,17.3-5.33,38.71-20.72,43.48-40.89-17.18,2.86-31.15,14.55-42.74,29.39,20.96-55.19,42.25-68.12,59.94-68.49,1.04,1.43,1,5.13,1,5.13h0c-4.39,1.44-6.93,7.89-7.03,15.25-.11,8.48,4.15,15.41,9.51,15.48,5.36,.07,9.72-6.74,9.91-15.22,.16-7.08-.8-11.88-7.04-14.92h0s-1.51-.86-1.51-.86c0,0,.46-3.15-.73-4.23-1.19-1.09,0,0,0,0l2.28,1.63c4.67,4.04,8.65,5.95,13.65,9.58,7.15,5.2,16.52,10.46,26.91,11.26-.72-7.83-4.13-16.19-12.97-20.96-8.23-4.45-15.39-6.72-27.04-7.61-4.54-.35-7.86-.42-12.8,.22l21.68-16.15,12.31,.18h0s1.76,.01,1.76,.01h0c5.57,7.81,11.67,15.69,18.89,21.39,8.28,6.54,20.6,12.39,30.66,12.63-2.67-11.9-10.29-22.31-19.88-28.77Zm15.21-22.83l-28.24,1.29c6.54-3.31,26.88-2.33,28.24-1.29Zm-55.54-28.45l-23.75,38.13c2.39-11.03,21.46-37.09,23.75-38.13Zm-62.71,43.7l-9.76,43.01c-.75-11.5,8.19-41.49,9.76-43.01Zm-32.55,81.43l-10.03-52.9c1.79,1.91,11.29,38.87,10.03,52.9Zm-48.43,7.12c3.96,1.02,27.98,19.41,33.26,31.89l-33.26-31.89Zm-6.01,33.83c3.69,2.23,22.5,28.78,24.15,43.59l-24.15-43.59Zm.04,89.08l-14.28-41.41c2.13,1.45,14.92,30.3,14.28,41.41Zm-28.6,43.46l-1.95-35.07c1.62,1.7,5.67,26.66,1.95,35.07Zm67.01,20.77l-43.18-.49c10.12-4.22,41.13-1.12,43.18,.49Zm25.72-74.43l-36.13,27.09c9.49-11.04,33.81-27.59,36.13-27.09Zm18.24-60.46l-31.83,33.36c5.76-11.83,29.71-33.25,31.83-33.36Zm21.15-68.88l-30.13,26.15c5.02-8.97,27.96-25.95,30.13-26.15Zm26.18-25.83c-.98-.45-1.51-1.87-1.67-3.34-.3-2.85,.66-6.16,2.38-8.26l-.72,11.6Zm9.81-3.17c-.19,1.46-.76,2.87-1.76,3.29l-.39-11.61c1.66,2.15,2.53,5.49,2.15,8.33Zm25.48-7.93l-18.97-13.13c6.18,.65,18.71,11.62,18.97,13.13Zm34.37-7.48l-37.09-27.56c11.01,3.39,36.19,25.14,37.09,27.56Z"/>
    <g>
      <polygon class="cls-3" points="384.98 169.53 387.93 163.87 356.9 163.87 325.87 163.87 328.81 169.53 384.98 169.53"/>
      <polygon class="cls-3" points="331.07 173.4 334.78 182.65 356.9 182.65 379.02 182.65 382.72 173.4 331.07 173.4"/>
    </g>
    <polygon class="cls-3" points="97.81 165.92 76.27 165.92 54.73 165.92 56.77 172.04 89.93 172.04 78.54 173.73 94.23 181.54 97.81 165.92"/>
  </g>
  <g>
    <path class="cls-3" d="M293.76,363.04c-2.65,0-4.84-.37-6.56-1.11s-3-1.71-3.82-2.91c-.83-1.2-1.24-2.47-1.24-3.82,0-1.53,.39-2.92,1.19-4.17,.79-1.25,1.83-2.33,3.12-3.25,1.29-.92,2.71-1.64,4.26-2.18,1.55-.54,3.08-.84,4.59-.92-1.33-.48-2.4-1.15-3.23-2.01-.83-.85-1.24-1.79-1.24-2.81s.32-2.05,.98-3,1.52-1.84,2.62-2.64c1.1-.8,2.34-1.5,3.73-2.08,1.39-.59,2.84-1.04,4.34-1.36,1.51-.32,2.96-.48,4.36-.48,2.27,0,4.08,.38,5.43,1.15,1.35,.76,2.03,1.75,2.03,2.94,0,1.1-.59,2.18-1.78,3.25-1.19,1.07-2.82,1.84-4.91,2.29-.41,.08-.68,.12-.8,.12-.28,0-.42-.12-.42-.34,0-.08,.04-.13,.13-.17,.09-.04,.29-.11,.59-.21,1.5-.51,2.7-1.23,3.6-2.16,.89-.93,1.34-1.92,1.34-2.96,0-.89-.43-1.61-1.28-2.16-.85-.55-2.14-.82-3.84-.82-1.53,0-3.07,.22-4.63,.65s-2.98,1.05-4.28,1.84c-1.3,.79-2.35,1.7-3.14,2.72-.79,1.02-1.19,2.13-1.19,3.33,0,.87,.25,1.57,.76,2.1,.51,.54,1.16,.96,1.95,1.28,.79,.32,1.61,.57,2.47,.77,.85,.19,1.64,.4,2.35,.63,.25,.08,.42,.18,.5,.31s.11,.25,.11,.38c0,.33-.19,.61-.55,.84-.37,.23-.89,.34-1.55,.34-.41,0-.86,0-1.36-.02-.5-.01-1.03-.02-1.59-.02-.79,0-1.62,.04-2.5,.11-.88,.08-1.84,.28-2.89,.61-1.33,.41-2.48,1.05-3.46,1.91-.98,.87-1.74,1.82-2.28,2.87-.54,1.05-.8,2.08-.8,3.1,0,1.33,.31,2.52,.92,3.59,.61,1.07,1.58,1.92,2.91,2.54,1.33,.62,3.07,.94,5.24,.94,1.99,0,3.91-.26,5.77-.77,1.86-.51,3.58-1.17,5.16-1.97,1.58-.8,2.93-1.64,4.05-2.5,.92-.74,1.66-1.49,2.24-2.26s.86-1.43,.86-1.99c0-.71-.5-1.15-1.49-1.3-.26-.02-.38-.1-.38-.23,0-.2,.18-.31,.54-.31,.74,0,1.4,.25,1.97,.75,.57,.5,.86,1.12,.86,1.85,0,1.45-1.03,2.98-3.1,4.59-1.25,.99-2.77,1.87-4.57,2.64-1.8,.76-3.73,1.37-5.81,1.82-2.08,.45-4.16,.67-6.25,.67Z"/>
    <path class="cls-3" d="M322.18,361.05c-.79,0-1.34-.2-1.64-.61s-.46-.93-.46-1.57,.11-1.42,.34-2.26c.23-.84,.54-1.78,.92-2.83-.28,0-.42-.13-.42-.38,.2-.51,.43-1.09,.67-1.74s.36-1.38,.36-2.2c0-.41-.05-.75-.15-1.03-.1-.28-.26-.45-.46-.5,.54-.1,.96-.18,1.26-.23,.31-.05,.51-.08,.61-.08,.15-.02,.29-.04,.42-.06,.13-.01,.24-.02,.34-.02,.25,0,.43,.1,.52,.31,.09,.2,.12,.65,.1,1.34-.03,.64-.15,1.41-.38,2.31-.23,.9-.47,1.69-.73,2.35-.33,.87-.64,1.75-.92,2.64-.28,.89-.42,1.63-.42,2.22,0,.51,.14,.84,.42,.99,.2,.08,.38,.11,.54,.11,.59,0,1.16-.28,1.72-.84s1.09-1.24,1.59-2.05,.91-1.57,1.24-2.31c-.15-.59-.23-1.29-.23-2.1,0-.87,.1-1.75,.31-2.64,.2-.89,.52-1.64,.96-2.24,.43-.6,.99-.9,1.68-.9,.48,0,.73,.22,.73,.65,0,.1-.12,.54-.36,1.3-.24,.76-.55,1.67-.94,2.71-.38,1.05-.79,2.05-1.22,3.02-.1,.2-.19,.41-.27,.61,.1,.43,.29,.78,.57,1.05,.28,.27,.62,.4,1.03,.4,.51,0,.99-.24,1.43-.71,.45-.47,.91-1.27,1.4-2.39,.31,0,.46,.11,.46,.34-.41,1.02-.9,1.84-1.47,2.45-.57,.61-1.22,.92-1.93,.92-.87,0-1.49-.45-1.87-1.34-.43,.89-.94,1.74-1.53,2.54-.59,.8-1.23,1.46-1.93,1.97s-1.46,.77-2.28,.77Z"/>
    <path class="cls-3" d="M341.22,360.94c-.94,0-1.79-.31-2.54-.92-.75-.61-1.13-1.54-1.13-2.79,0-1.15,.28-2.38,.84-3.69,.56-1.31,1.27-2.47,2.14-3.46,.74-.87,1.57-1.58,2.49-2.14,.92-.56,1.78-.84,2.6-.84,.56,0,1.04,.15,1.45,.46,.43,.33,.65,.8,.65,1.42s-.24,1.34-.73,2.1c-.48,.76-1.17,1.48-2.07,2.14-.38,.28-.87,.55-1.45,.8s-1.17,.47-1.76,.63c-.59,.17-1.07,.25-1.45,.25-.13,.31-.25,.71-.36,1.22-.12,.51-.17,1.03-.17,1.57,0,.64,.13,1.21,.38,1.72,.25,.51,.73,.77,1.42,.77,.89,0,1.81-.31,2.75-.92,.94-.61,1.84-1.37,2.7-2.28,.85-.9,1.56-1.8,2.12-2.7,.31-.66,.62-1.32,.96-1.97,.33-.65,.66-1.29,.99-1.93,.51-.92,.94-1.56,1.3-1.93,.36-.37,.83-.55,1.42-.55,.2,0,.42,.03,.65,.1,.23,.06,.46,.1,.69,.1,.15,0,.27-.01,.34-.04-.36,.2-.82,.71-1.4,1.51-.57,.8-1.15,1.73-1.74,2.77-.59,1.05-1.11,2.03-1.57,2.94,.48-.59,.99-1.17,1.53-1.76,.54-.59,1.12-1.15,1.76-1.68,.61-.54,1.34-1.09,2.2-1.66,.85-.57,1.69-1.05,2.5-1.43s1.47-.57,1.95-.57c.18,0,.31,.01,.38,.04-.56,.99-1.05,1.89-1.47,2.7-.42,.8-.85,1.66-1.28,2.56s-.82,1.77-1.17,2.6c-.34,.83-.57,1.52-.67,2.08-.08,.33-.11,.64-.11,.92,0,.41,.08,.68,.23,.8,.15,.13,.32,.19,.5,.19,.48,0,.98-.22,1.49-.65,.51-.43,1-.99,1.47-1.68,.47-.69,.91-1.42,1.32-2.18,.41-.77,.75-1.48,1.03-2.14,.31,0,.46,.11,.46,.34-.28,.69-.63,1.45-1.05,2.28-.42,.83-.89,1.62-1.42,2.37-.52,.75-1.1,1.37-1.74,1.85-.64,.48-1.33,.73-2.06,.73-.51,0-1.04-.18-1.59-.54s-.82-1.02-.82-1.99c0-.28,.02-.58,.08-.9,.05-.32,.14-.67,.27-1.05,.2-.51,.45-1.06,.73-1.64,.28-.59,.74-1.39,1.38-2.41,.18-.28,.29-.5,.32-.65,.04-.15,.06-.28,.06-.38,0-.31-.14-.46-.42-.46-.23,0-.57,.13-1.01,.38-.45,.26-1,.7-1.66,1.34-.64,.61-1.4,1.48-2.28,2.6-.88,1.12-1.89,2.78-3.04,4.97-.18,.33-.38,.51-.59,.54-.22,.02-.52,.05-.9,.08-.26,.02-.5,.05-.73,.08-.23,.03-.42,.09-.57,.19,.31-.61,.61-1.22,.9-1.84,.29-.61,.58-1.21,.86-1.8-.87,.94-1.85,1.75-2.94,2.43-1.1,.68-2.23,1.01-3.4,1.01Zm-.69-6.73c.36,0,.96-.13,1.8-.4,.84-.27,1.61-.69,2.29-1.28,.66-.59,1.17-1.23,1.53-1.93,.36-.7,.54-1.29,.54-1.78,0-.56-.2-.84-.61-.84-.31,0-.73,.2-1.26,.61-.54,.41-1.2,1.1-1.99,2.07-.48,.61-.94,1.27-1.38,1.99-.43,.71-.74,1.24-.92,1.57Z"/>
    <path class="cls-3" d="M376.06,340.59c-.33,.48-.7,1.1-1.11,1.84-.41,.74-.78,1.45-1.13,2.14-.34,.69-.61,1.21-.78,1.57h3.52c0,.1-.04,.27-.13,.5-.09,.23-.26,.4-.52,.5h-3.33c-.31,.69-.66,1.52-1.05,2.49-.4,.97-.78,1.98-1.15,3.02-.37,1.05-.68,2.02-.92,2.93-.24,.91-.36,1.64-.36,2.2,0,.76,.1,1.33,.31,1.7,.2,.37,.57,.55,1.11,.55,.69,0,1.35-.34,1.99-1.01,.64-.67,1.24-1.52,1.82-2.54,.57-1.02,1.08-2.04,1.51-3.06,.31,0,.46,.11,.46,.34-.28,.69-.62,1.44-1.03,2.26-.41,.82-.87,1.6-1.4,2.35-.52,.75-1.11,1.36-1.76,1.84-.65,.47-1.37,.71-2.16,.71-1.07,0-1.8-.3-2.18-.9-.38-.6-.57-1.37-.57-2.31,0-.69,.13-1.52,.38-2.51,.25-.98,.57-1.99,.94-3.04,.37-1.04,.73-2.02,1.09-2.93,.36-.9,.64-1.6,.84-2.08h-2.45c0-.2,.09-.42,.27-.65,.18-.23,.37-.34,.57-.34h2.03c.2-.41,.44-.92,.71-1.53,.27-.61,.63-1.29,1.09-2.03,.38-.61,.87-1.1,1.47-1.45s1.24-.54,1.93-.54Z"/>
    <path class="cls-3" d="M382.37,360.94c-1.05,0-1.89-.32-2.54-.98-.65-.65-.98-1.33-.98-2.05,0-.59,.15-1.13,.44-1.63s.68-.75,1.17-.75l.04-.08c.56-1.02,1.1-2.06,1.63-3.12,.52-1.06,1.1-2.19,1.74-3.38,.54-.99,1.11-1.81,1.74-2.45,.62-.64,1.36-.96,2.2-.96,.2,0,.48,.04,.84,.13,.36,.09,.54,.27,.54,.56,0,.2-.12,.31-.34,.31-.18,0-.38-.05-.59-.15-.22-.1-.39-.15-.52-.15-.48,0-.89,.28-1.22,.84-.33,.56-.5,1.16-.5,1.8,0,.69,.11,1.31,.34,1.85,.23,.55,.5,1.08,.8,1.59,.31,.51,.57,1.03,.8,1.55,.23,.52,.34,1.09,.34,1.7,0,1.22-.24,2.21-.71,2.96-.47,.75-1.09,1.32-1.85,1.7h.04c1.35,0,2.47-.63,3.35-1.89,.88-1.26,1.75-2.91,2.62-4.95,.31,0,.46,.11,.46,.34-.48,1.15-1.02,2.27-1.61,3.37-.59,1.1-1.28,2-2.07,2.72s-1.76,1.07-2.91,1.07c-.48,0-.93-.05-1.34-.15-.59,.13-1.22,.19-1.91,.19Zm-1.84-2.14c0,.41,.14,.76,.42,1.07s.7,.46,1.26,.46c.25,0,.5-.02,.73-.08-.54-.33-.96-.75-1.28-1.26-.32-.51-.48-1.1-.48-1.76-.23,.25-.4,.52-.5,.78-.1,.27-.15,.53-.15,.78Zm1.26-1.91c0,.61,.14,1.2,.42,1.76s.79,.98,1.53,1.26c.66-.38,1.18-.98,1.55-1.78,.37-.8,.55-1.64,.55-2.5,0-.71-.08-1.44-.23-2.18-.15-.74-.31-1.47-.48-2.18s-.25-1.35-.25-1.91c0-.18,0-.34,.02-.48,.01-.14,.03-.27,.06-.4-.46,.69-.92,1.49-1.4,2.41-.47,.92-.92,1.8-1.36,2.64-.43,.84-.83,1.53-1.19,2.06,.51,.08,.76,.51,.76,1.3Z"/>
  </g>
</svg>